# xmcd CD database file
#
# Track frame offsets:
#	150
#	12108
#	27162
#	38919
#	51833
#	64223
#	80053
#	92565
#	111225
#	125702
#	141815
#	157940
#
# Disc length: 2269 seconds
#
# Revision: 1
# Processed by: cddbd v1.5.2PL0 Copyright (c) Steve Scherf et al.
# Submitted via: CDex 1.51
#
DISCID=9c08db0c
DTITLE=O.V. Wright - Memphis Unlimited
DYEAR=2008
DGENRE=Soul
TTITLE0=I've Been Seaching
TTITLE1=Nothing Comes To A Sleeper
TTITLE2=The Only Thing That Saved Me
TTITLE3=He's My Son (Just The Same)
TTITLE4=You Must Believe In Yourself
TTITLE5=Lost In The Shuffle
TTITLE6=I'd Rather Be Blind, Cripple, And Crazy
TTITLE7=Please Forgive Me
TTITLE8=Are You Going Where I'm Coming From
TTITLE9=Ghetto Child
TTITLE10=Memory Blues
TTITLE11=I'm Going Home (To Live With God)
EXTD=YEAR: 2008
EXTT0=
EXTT1=
EXTT2=
EXTT3=
EXTT4=
EXTT5=
EXTT6=
EXTT7=
EXTT8=
EXTT9=
EXTT10=
EXTT11=
PLAYORDER=
